# xmcd CD database file
#
# Track frame offsets:
#	150
#	21344
#	49162
#	81037
#	95527
#	121706
#	141621
#	162754
#	185130
#	206877
#	237499
#	261012
#	292434
#	309634
#
# Disc length: 4343 seconds
#
# Revision: 0
# Processed by: cddbd v1.5.2PL0 Copyright (c) Steve Scherf et al.
# Submitted via: CDex 1.51
#
DISCID=d910f50e
DTITLE=Various Artist - JAZZ  MAGAZINE  Nr. 46 
DYEAR=2006
DGENRE=Jazz
TTITLE0=GIANNI LENOCI - giorgio dini, MARKUS STOCKHAUSEN - Ergskkem
TTITLE1=EDDIE HENDERSON PROJECT - Around The World In 3/4
TTITLE2=ERIC ALEXANDER - Where Or When
TTITLE3=BILLY ECKSTINE - Here Come The Blues
TTITLE4=SAM KINIGER - Pieces
TTITLE5=ACHILLE SUCCI ENSEMBLE - La Foglia Del Linguaggio
TTITLE6=ALESSANDRO LANZONI - ARES TAVOLAZZI - My Romance 
TTITLE7=BOJAN Z- CD.ROM
TTITLE8=ARCHIE SHEPP - Attica Blues
TTITLE9=MONTY ALEXANDER - Forever Lovin' Jah
TTITLE10=ERIK FRIEDLANDER - Howling Circle
TTITLE11=MICHAEL ROSEN - Mirror Circle
TTITLE12=VERCELLI JAZZ FIARMONICA - Intermission Riff
TTITLE13=CAROLINE HENDERSON - Lush Life
EXTD=YEAR: 2006
EXTT0=
EXTT1=
EXTT2=
EXTT3=
EXTT4=
EXTT5=
EXTT6=
EXTT7=
EXTT8=
EXTT9=
EXTT10=
EXTT11=
EXTT12=
EXTT13=
PLAYORDER=
